<svg id="svg" version="1.1" viewBox="0 0 300 291.8918918918919" width="300" height="291.8918918918919" xmlns="http://www.w3.org/2000/svg"><svg xmlns="http://www.w3.org/2000/svg"><defs><clipPath id="clip-1"><rect x="0" y="0" transform="scale(0.18428,0.18428)" width="1628" height="1584" fill="none"/></clipPath><linearGradient x1="150.97942" y1="160.50534" x2="150.57641" y2="82.56763" gradientUnits="userSpaceOnUse" id="color-1"><stop offset="0" stop-color="#717070"/><stop offset="1" stop-color="#adacac"/></linearGradient><linearGradient x1="150.26904" y1="85.56947" x2="150.43765" y2="21.37518" gradientUnits="userSpaceOnUse" id="color-2"><stop offset="0" stop-color="#ababaa"/><stop offset="1" stop-color="#e4e4e4"/></linearGradient><linearGradient x1="150.17138" y1="230.15418" x2="151.11026" y2="142.9828" gradientUnits="userSpaceOnUse" id="color-3"><stop offset="0" stop-color="#2e2d2e"/><stop offset="1" stop-color="#818080"/></linearGradient><linearGradient x1="103.77181" y1="242.2113" x2="99.33114" y2="131.86953" gradientUnits="userSpaceOnUse" id="color-4"><stop offset="0" stop-color="#2c2c2c"/><stop offset="1" stop-color="#8b8a8a"/></linearGradient><linearGradient x1="197.93919" y1="243.00369" x2="204.11057" y2="135.85633" gradientUnits="userSpaceOnUse" id="color-5"><stop offset="0" stop-color="#2d2c2d"/><stop offset="1" stop-color="#8a8989"/></linearGradient><linearGradient x1="34.80645" y1="170.07733" x2="31.62789" y2="99.90461" gradientUnits="userSpaceOnUse" id="color-6"><stop offset="0" stop-color="#595959"/><stop offset="1" stop-color="#a9a7a8"/></linearGradient></defs><g clip-path="url(#clip-1)" fill="none" fill-rule="nonzero" stroke="none" stroke-width="1" stroke-linecap="butt" stroke-linejoin="miter" stroke-miterlimit="10" stroke-dasharray="" stroke-dashoffset="0" font-family="none" font-weight="none" font-size="none" text-anchor="none" style="mix-blend-mode: normal"><path d="M46.43127,82.63692c1.03194,-0.78335 3.689,-2.25774 4.94834,-2.99244c3.00571,-1.73163 5.99318,-3.49478 8.96167,-5.28943l37.67654,-22.48507l37.636,-22.39883c4.51972,-2.63864 10.53999,-6.71186 15.05878,-8.7035c3.65068,1.56781 10.63765,6.01327 14.27617,8.17905l23.73483,14.01192l45.11057,26.8476c6.29853,3.76069 14.59644,8.27764 20.65725,12.26738c1.60688,0.74429 14.14496,8.07936 14.65172,9.14208c0.0645,0.136 0.06265,0.15571 -0.01106,0.2895c-0.46806,0.85375 -17.84337,10.75319 -20.52826,12.27752c-11.43243,6.49423 -22.65111,13.42758 -33.96929,20.12543l-36.50068,21.28692l-18.15037,10.82967c-2.21499,1.32107 -6.9223,4.34097 -9.00958,5.16781c-3.26738,-1.3465 -9.2508,-5.33864 -12.60811,-7.31112l-31.86173,-18.95952c-1.47881,-0.87236 -8.68821,-4.56818 -9.19754,-5.57045c0.04036,-0.44005 -0.04533,-0.39951 0.42531,-0.73692c4.04208,-2.89699 8.99318,-5.43299 13.31038,-7.92199l29.21591,-16.89103c3.62875,-2.11143 8.07568,-4.46278 11.30436,-7.03507c3.54619,-2.82531 1.33397,-7.23299 -1.85657,-9.21708c-3.07482,0.34017 -8.15178,3.82205 -11.02942,5.49251l-11.95909,6.85725l-29.19103,16.70197c-2.30786,1.32125 -9.65141,5.72414 -11.56456,6.43618c-2.6016,-1.22267 -5.0567,-2.83084 -7.54128,-4.27905c-13.54662,-7.89656 -26.95541,-16.11063 -40.81511,-23.44072c-0.00866,2.90768 0.13249,9.24066 -0.17285,11.75731l-0.02451,-0.19183c-0.09232,-0.76585 0.18483,-7.70639 -0.93943,-7.11837c-1.26007,0.65915 -1.12905,0.75018 -3.00903,0.86112l-0.16935,-0.51007l-0.22574,0.05381c-0.66486,1.53077 0.39932,14.35338 -0.62101,15.30774c-0.25909,-2.14662 -0.14816,-23.00289 0.21542,-24.27807c0.30424,-1.0664 11.96904,-7.4766 13.77236,-8.56216z" fill="url(#color-1)"/><path d="M46.43127,82.63692c1.03194,-0.78335 3.689,-2.25774 4.94834,-2.99244c3.00571,-1.73163 5.99318,-3.49478 8.96167,-5.28943l37.67654,-22.48507l37.636,-22.39883c4.51972,-2.63864 10.53999,-6.71186 15.05878,-8.7035c3.65068,1.56781 10.63765,6.01327 14.27617,8.17905l23.73483,14.01192l45.11057,26.8476c6.29853,3.76069 14.59644,8.27764 20.65725,12.26738c-0.1769,0.45092 -0.2156,0.44613 -0.55651,0.76787c-1.10381,0.06118 -1.46867,0.75313 -2.44902,1.01867c-0.96929,0.26222 -2.04545,0.44631 -3.04238,0.65252c-7.30467,1.51124 -14.67936,-0.60885 -22.02273,-0.54453c-1.47236,0.0129 -2.96867,0.18907 -4.44472,0.18335c-5.19103,-0.13047 -10.30467,0.64865 -15.47543,0.72715c-5.43796,0.08256 -10.82801,-0.80123 -16.28256,-0.64902c-4.47052,0.09472 -8.99115,0.8742 -13.47015,0.84048c-2.79564,-0.02101 -5.76357,0.05086 -8.54373,-0.09693c-2.92887,-0.15571 -5.85387,-0.54527 -8.80541,-0.59484c-2.47574,-0.07039 -4.9699,0.2941 -7.43495,0.33022c-0.99509,-0.1078 -1.81806,-0.38274 -2.83968,-0.37813c-7.55602,0.03428 -15.04846,0.62506 -22.57961,1.11726c-2.37973,0.15534 -5.24484,-0.37776 -7.725,-0.3785c-6.47469,-0.00184 -12.95012,-0.01677 -19.42518,-0.01769l-30.83182,-0.03206c-5.89644,0.04717 -17.2723,1.34742 -22.0933,-1.45172c-0.18907,-0.45313 -0.14779,-0.44042 -0.03796,-0.93077z" fill="url(#color-2)"/><path d="M150.92912,174.511c2.03219,-0.92819 4.54146,-2.73593 6.51892,-3.92211c3.08256,-1.8492 6.16787,-3.65749 9.26462,-5.48108c12.60018,-7.336 25.15098,-14.75786 37.64853,-22.26468c-0.12531,9.52297 0.02764,19.59896 -0.00737,29.05172c-0.01658,4.94705 0.59337,23.95098 -0.5215,27.23108c-0.86978,1.32678 -8.81572,5.62776 -10.664,6.74816c-8.54115,5.2113 -17.11732,10.36732 -25.72758,15.46437c-3.06781,1.83722 -6.12439,3.69287 -9.16953,5.5688c-2.32813,1.40786 -4.51861,2.88575 -7.0852,3.79423c-2.6812,-0.39803 -7.77733,-4.02273 -10.3699,-5.59275c-5.99152,-3.6726 -12.00276,-7.31204 -18.03354,-10.92015l-15.50639,-9.23219c-2.24539,-1.30835 -8.20633,-4.31204 -9.74042,-5.87101c-0.3726,-1.80774 -0.23661,-5.70332 -0.23071,-7.70086l0.02893,-12.60792c0.01179,-4.08962 -0.43636,-33.88084 0.21339,-35.68176c1.48876,0.50842 9.21708,5.24134 10.86929,6.23071l27.46382,16.38722c2.99281,1.84588 5.99502,3.67666 9.00645,5.49232c1.88569,1.13477 4.01204,2.53028 6.0422,3.3059z" fill="url(#color-3)"/><path d="M64.12611,136.80737c-0.10319,-1.85031 -0.24232,-11.18569 0.15903,-12.67426l0.35123,-0.10799c1.99017,0.48151 12.16179,6.79846 14.79896,8.33458c1.49871,0.87604 5.60547,3.02045 6.57991,4.05479c0.55098,4.89122 -0.05399,12.08237 0.0199,17.29699c0.16014,11.29607 0.26001,22.60412 0.16585,33.89724c-0.03206,3.84582 -0.37095,14.51167 0.29244,17.95577c1.48655,1.24386 4.18102,2.66278 5.91929,3.66155c2.02776,1.17199 4.03765,2.37531 6.02893,3.60995l33.09509,19.8188c4.14029,2.48956 9.42291,5.21867 13.23778,7.9183l-0.34441,0.16585c-0.50971,-0.2414 -1.86579,-1.18489 -2.07125,-1.16646c-2.28667,0.21007 -4.45541,1.75061 -7.00872,1.42629c-2.88428,-0.36486 -5.55571,-1.58845 -8.26732,-2.48403c-5.36112,-1.73219 -11.56751,-0.77764 -16.98851,0.28931c-1.15614,0.22666 -2.54392,0.47174 -3.65252,0.81081c-1.47826,0.45147 -1.664,1.47973 -3.39251,1.42445l-0.24859,0.27273c-0.68919,-0.28378 -5.35356,-3.07371 -6.26278,-3.60442c-5.98342,-3.52518 -11.93366,-7.10749 -17.85018,-10.74324c-2.26677,-1.40233 -4.55805,-2.76413 -6.87254,-4.08354c-2.30362,-1.29545 -4.62733,-2.46929 -6.81339,-3.95086c-1.36143,-2.42875 -0.86757,-13.2586 -0.84969,-16.75799l0.08477,-24.06247c0.0317,-8.00068 0.014,-16.00135 -0.05307,-24.00184c-0.05289,-5.2078 -0.29337,-12.19883 -0.05768,-17.30031z" fill="url(#color-4)"/><path d="M64.12611,136.80737c-0.10319,-1.85031 -0.24232,-11.18569 0.15903,-12.67426l0.35123,-0.10799c1.99017,0.48151 12.16179,6.79846 14.79896,8.33458c-2.11714,2.99982 -9.99453,4.47291 -13.38575,6.00295c-0.23366,0.10541 -0.87678,-0.1148 -1.13514,-0.20289l-0.24564,0.14816l-0.22371,1.02475l-0.05399,0.01953c-0.12899,-0.91769 0.09048,-2.14496 -0.26499,-2.54484z" fill="#8d8c8c"/><path d="M215.58722,139.01222c-0.05528,-0.93575 -0.21192,-2.28833 0.55835,-2.97586c1.61609,-1.44232 3.79607,-2.55977 5.707,-3.59871c4.32125,-2.34896 8.48034,-4.88421 12.64865,-7.48876c0.63759,-0.39803 1.8059,-1.06087 2.56511,-1.02899c0.55835,0.62377 0.46806,2.36222 0.40356,3.23845c-0.26351,3.58931 0.1898,7.76775 -0.14005,11.29478l0.04238,47.12856l0.03133,17.26843c0.00737,3.30037 0.37224,13.39496 -0.51966,15.93243c-1.31572,1.27703 -4.66585,3.05344 -6.40725,4.06327c-2.37346,1.39128 -4.73956,2.79914 -7.09644,4.21806l-18.9398,11.37899c-2.7328,1.63268 -5.81388,3.58968 -8.56327,5.11732l-0.21929,-0.78317c0.18612,-0.50307 0.23219,-0.6726 0.35012,-1.19595c-1.87592,-4.88514 -22.74158,-3.23587 -27.01529,-2.42138c-2.93624,0.55835 -5.42396,0.23587 -8.34656,-0.29853c-0.68735,-0.12531 -2.8981,2.16892 -4.26505,2.08968c1.47457,-1.15725 6.16456,-3.94165 7.89951,-4.96622l10.73735,-6.34275c9.62948,-5.59275 19.18415,-11.31265 28.66327,-17.15971c1.91093,-1.17199 3.83477,-2.32187 5.7715,-3.45332c2.67199,-1.53501 6.15663,-2.57432 6.17875,-6.01474c0.10504,-16.03378 -0.08477,-32.08544 0.18428,-48.12604c0.08477,-5.10719 -0.4957,-10.69644 -0.23956,-15.69509z" fill="url(#color-5)"/><path d="M215.58722,139.01222c-0.05528,-0.93575 -0.21192,-2.28833 0.55835,-2.97586c1.61609,-1.44232 3.79607,-2.55977 5.707,-3.59871c4.32125,-2.34896 8.48034,-4.88421 12.64865,-7.48876c0.63759,-0.39803 1.8059,-1.06087 2.56511,-1.02899c0.55835,0.62377 0.46806,2.36222 0.40356,3.23845c-0.26351,3.58931 0.1898,7.76775 -0.14005,11.29478c-0.24693,0.80068 -0.37039,1.18784 -0.39066,2.04951c0.02948,-3.41259 -2.17998,-2.90713 -4.73403,-2.83378c-5.27211,0.15166 -10.36364,1.93378 -15.3317,3.57015c-0.33907,-0.32432 -0.30958,-0.31345 -0.74447,-0.47764l-0.2543,0.27365c-0.22113,-0.26849 -0.05897,-1.28735 -0.0258,-1.72168z" fill="#8d8c8c"/><path d="M102.80068,241.31204l0.24859,-0.27273c1.7285,0.05528 1.91425,-0.97297 3.39251,-1.42445c1.1086,-0.33907 2.49638,-0.58415 3.65252,-0.81081c5.42101,-1.06695 11.6274,-2.0215 16.98851,-0.28931c2.71161,0.89558 5.38305,2.11916 8.26732,2.48403c2.55332,0.32432 4.72205,-1.21622 7.00872,-1.42629c0.20547,-0.01843 1.56155,0.92506 2.07125,1.16646l0.34441,-0.16585c3.84527,2.23157 5.88299,4.89066 10.08759,1.34521c0.22002,-0.18428 1.26579,-0.86609 1.51898,-0.96744c1.36695,0.07924 3.5777,-2.21499 4.26505,-2.08968c2.9226,0.5344 5.41032,0.85688 8.34656,0.29853c4.27371,-0.8145 25.13937,-2.46376 27.01529,2.42138c-0.11794,0.52334 -0.164,0.69287 -0.35012,1.19595l0.21929,0.78317l-30.06026,17.79361c-2.42451,1.44103 -4.83391,2.90786 -7.22801,4.39865c-2.07991,1.31941 -4.08888,2.75491 -6.30608,3.83477c-0.8355,0.40725 -2.02353,0.28747 -2.82475,-0.15848c-3.20878,-1.78194 -6.26923,-3.83845 -9.39656,-5.76229l-17.33071,-10.49631c-5.62924,-3.42015 -11.24834,-6.74263 -16.98354,-9.98034c-0.97482,-0.54914 -2.03274,-1.2328 -2.94656,-1.87776z" fill="#292929"/><path d="M32.44349,115.47715c1.02033,-0.95436 -0.04386,-13.77697 0.62101,-15.30774l0.22574,-0.05381l0.16935,0.51007c1.87998,-0.11093 1.74896,-0.20197 3.00903,-0.86112c1.12426,-0.58802 0.84711,6.35252 0.93943,7.11837l0.02451,0.19183c0.12789,4.79152 -0.24306,9.63538 0.21615,14.41769c1.96474,2.64785 4.38778,4.48692 3.85983,8.34048c-0.34367,2.50909 -2.31357,4.13735 -4.1473,5.66443c0.90074,4.44969 6.49957,31.68501 5.94122,34.41763c-0.97574,0.57586 -15.89926,0.37463 -16.85068,-0.21044c-0.65547,-2.31652 4.83004,-30.06634 5.93219,-34.12334c-1.74638,-2.34785 -4.67101,-4.43735 -4.25565,-7.66474c0.30903,-2.40295 2.55387,-4.84552 4.10823,-6.64017c0.09932,-1.93194 0.16824,-3.86517 0.20694,-5.79914z" fill="url(#color-6)"/></g></svg></svg>